#!OML:ASF F:\VICON\USERDATA\INSTALL\rory3\rory3.ASF
:FULLY-SPECIFIED
:DEGREES
204
root 0.0983896 21.7762 -4.97929 10.974 -1.14022 0.302537
lowerback -9.22888 2.00413 2.58003
upperback -7.05306 2.49246 0.177318
thorax -2.05667 1.16191 -1.07989
lowerneck -10.4471 -1.93476 -8.07935
upperneck 2.75032 -1.96394 7.775
head 2.66798 -0.776955 3.56854
rclavicle 5.04913e-014 1.78906e-014
rhumerus 31.7669 26.213 -48.841
rradius 43.0259
rwrist 17.5441
rhand -20.4767 1.36104
rfingers 7.12502
rthumb 5.87962 -28.5374
lclavicle 5.04913e-014 1.78906e-014
lhumerus 29.9861 -16.8599 55.0517
lradius 65.9628
lwrist -3.78363
lhand -27.6981 17.4436
lfingers 7.12502
lthumb -1.0943 47.4205
rfemur 5.71245 12.9557 22.2872
rtibia 20.4492
rfoot 13.8862 -26.7882
rtoes 9.28678
lfemur 9.53743 0.494545 -20.152
ltibia 12.9542
lfoot 22.2787 20.2296
ltoes 5.5152
205
root 0.103172 22.1113 -4.75185 10.6039 -1.23444 -0.0694519
lowerback -9.8139 1.99859 3.04574
upperback -7.11993 2.43155 0.342129
thorax -1.80105 1.12042 -1.15575
lowerneck -10.2402 -1.85095 -8.26425
upperneck 3.3249 -1.86144 7.65465
head 2.7987 -0.738068 3.56875
rclavicle -5.81445e-015 -1.07344e-014
rhumerus 31.2614 26.706 -49.0874
rradius 42.6024
rwrist 19.0209
rhand -19.5698 1.46412
rfingers 7.12502
rthumb 6.75515 -28.4081
lclavicle -5.81445e-015 -1.07344e-014
lhumerus 28.0171 -16.0573 56.0606
lradius 65.3008
lwrist -5.35146
lhand -26.4065 17.6354
lfingers 7.12502
lthumb 0.15309 47.6151
rfemur 5.42383 11.0665 22.6087
rtibia 22.5684
rfoot 21.1275 -28.1894
rtoes 11.8248
lfemur 8.48827 2.27863 -19.6311
ltibia 16.8545
lfoot 28.5774 17.3951
ltoes 2.97155
206
root 0.103643 22.4211 -4.55023 9.6571 -1.29958 -0.314218
lowerback -9.56884 2.08681 3.54978
upperback -6.85877 2.51548 0.295699
thorax -1.63713 1.14893 -1.48117
lowerneck -10.7591 -1.97566 -8.16656
upperneck 3.91 -2.01002 7.38645
head 3.06567 -0.81242 3.46077
rclavicle -1.98785e-015 -1.98785e-015
rhumerus 30.0988 25.9379 -50.3629
rradius 42.4029
rwrist 20.6697
rhand -18.4141 1.69416
rfingers 7.12502
rthumb 7.87069 -28.1393
lclavicle -1.98785e-015 -1.98785e-015
lhumerus 26.189 -15.2764 57.0436
lradius 65.1115
lwrist -6.55345
lhand -25.6262 17.7977
lfingers 7.12502
lthumb 0.906754 47.7755
rfemur 5.62527 9.62927 23.0449
rtibia 25.1397
rfoot 24.8347 -26.6681
rtoes 9.52622
lfemur 8.15555 3.34721 -19.284
ltibia 20.7242
lfoot 34.3534 14.7954
ltoes 4.42282
207
root 0.0954959 22.695 -4.37482 8.06645 -1.44076 -0.0853177
lowerback -8.58034 2.12415 3.27342
upperback -6.2796 2.61377 0.290007
thorax -1.57569 1.21408 -1.34801
lowerneck -11.4931 -2.218 -8.31694
upperneck 4.40909 -2.26207 7.17751
head 3.35299 -0.936766 3.40302
rclavicle -1.43125e-014 -6.36111e-015
rhumerus 28.668 24.4574 -51.986
rradius 42.4331
rwrist 22.285
rhand -17.4924 1.96715
rfingers 7.12502
rthumb 8.7602 -27.8311
lclavicle -1.43125e-014 -6.36111e-015
lhumerus 24.2391 -14.2175 58.3704
lradius 65.22
lwrist -7.20815
lhand -25.2658 17.2062
lfingers 7.12502
lthumb 1.25483 47.1823
rfemur 6.36915 8.68789 23.2119
rtibia 28.118
rfoot 25.9438 -23.3313
rtoes 10.86
lfemur 8.64544 4.11059 -19.4331
ltibia 24.3681
lfoot 35.2549 11.4322
ltoes 3.58793
208
root 0.0825385 22.9447 -4.21757 6.1332 -1.64813 0.403795
lowerback -7.21252 2.22089 2.71864
upperback -5.52207 2.81162 0.16582
thorax -1.54558 1.33491 -1.1879
lowerneck -12.001 -2.49112 -8.46563
upperneck 4.6384 -2.57402 7.17467
head 3.53052 -1.08519 3.40345
rclavicle -5.81445e-015 5.56597e-015
rhumerus 26.9787 22.6493 -53.6398
rradius 42.8274
rwrist 23.1701
rhand -16.6243 1.86468
rfingers 7.12502
rthumb 9.59787 -27.8967
lclavicle -5.81445e-015 5.56597e-015
lhumerus 22.1896 -13.1495 59.7022
lradius 65.6447
lwrist -7.4348
lhand -24.5954 16.2051
lfingers 7.12502
lthumb 1.90233 46.1764
rfemur 7.27164 7.94636 23.1372
rtibia 31.3906
rfoot 26.1598 -20.164
rtoes 10.9187
lfemur 9.56186 4.81507 -19.8286
ltibia 27.685
lfoot 35.3965 7.7864
ltoes 5.06003
209
root 0.0703125 23.2011 -4.06043 4.31717 -1.78455 0.624687
lowerback -5.54613 2.30457 2.66551
upperback -5.01392 2.97174 -0.0566474
thorax -1.92419 1.41214 -1.43458
lowerneck -12.3466 -2.67949 -8.4785
upperneck 5.11559 -2.83212 7.35982
head 3.75522 -1.19855 3.44396
rclavicle -2.3059e-014 -6.16232e-015
rhumerus 24.9316 21.1679 -55.4538
rradius 43.5109
rwrist 23.1027
rhand -16.0929 1.22948
rfingers 7.12502
rthumb 10.1105 -28.5076
lclavicle -2.3059e-014 -6.16232e-015
lhumerus 19.5419 -12.1292 60.7986
lradius 66.2749
lwrist -7.61389
lhand -24.5008 15.789
lfingers 7.12502
lthumb 1.9937 45.7594
rfemur 7.86962 7.16582 23.2264
rtibia 34.7602
rfoot 27.8786 -18.6762
rtoes 10.172
lfemur 10.39 5.31671 -19.9278
ltibia 30.5257
lfoot 36.6493 5.52138
ltoes 3.05459
210
root 0.0634442 23.4693 -3.90266 2.79337 -1.84178 0.509786
lowerback -3.54257 2.21868 3.03774
upperback -4.89682 2.91428 -0.182558
thorax -2.89963 1.35564 -1.85512
lowerneck -12.3861 -2.68596 -8.41367
upperneck 5.59441 -2.88416 7.52726
head 3.91379 -1.21445 3.4827
rclavicle -2.38542e-015 5.76476e-015
rhumerus 22.7939 20.3417 -57.3406
rradius 44.2354
rwrist 22.173
rhand -16.5742 0.530436
rfingers 7.12502
rthumb 9.64614 -29.2287
lclavicle -2.38542e-015 5.76476e-015
lhumerus 16.1216 -10.7829 61.7667
lradius 66.8198
lwrist -7.70982
lhand -25.8938 15.7917
lfingers 7.12502
lthumb 0.648296 45.7705
rfemur 8.0462 6.48233 23.6167
rtibia 38.0693
rfoot 30.0194 -18.0839
rtoes 10.4208
lfemur 11.0312 5.48472 -19.7485
ltibia 32.7584
lfoot 38.9007 3.10287
ltoes 1.17083
211
root 0.0598432 23.7336 -3.75242 1.60019 -1.91746 0.77586
lowerback -1.93816 2.02923 2.64948
upperback -4.68966 2.71736 -0.094646
thorax -3.61646 1.26174 -1.61
lowerneck -12.5438 -2.59036 -8.27079
upperneck 5.8077 -2.74905 7.22738
head 3.98635 -1.15813 3.37526
rclavicle 1.63997e-015 -3.18055e-015
rhumerus 21.2899 19.9114 -58.4881
rradius 44.7933
rwrist 20.4194
rhand -17.9651 -0.096999
rfingers 7.12502
rthumb 8.304 -29.9138
lclavicle 1.63997e-015 -3.18055e-015
lhumerus 12.6897 -8.74268 62.9283
lradius 67.2682
lwrist -7.34682
lhand -27.0402 15.8358
lfingers 7.12502
lthumb -0.458867 45.815
rfemur 7.80156 6.12045 23.5908
rtibia 41.2217
rfoot 31.7045 -18.5068
rtoes 10.1383
lfemur 11.4542 5.24957 -20.2119
ltibia 34.2769
lfoot 39.2403 1.05774
ltoes -3.18
212
root 0.0530434 23.9921 -3.60309 0.799939 -2.15425 1.68883
lowerback -0.825674 1.94682 1.57942
upperback -4.48169 2.61834 -0.222594
thorax -4.07075 1.24312 -1.18242
lowerneck -12.8919 -2.51971 -8.15772
upperneck 6.13764 -2.6458 7.07319
head 4.13143 -1.10749 3.31565
rclavicle -7.10655e-015 7.95139e-015
rhumerus 19.9468 19.4708 -59.434
rradius 45.0982
rwrist 18.4553
rhand -19.6948 -0.59907
rfingers 7.12502
rthumb 6.63444 -30.4751
lclavicle -7.10655e-015 7.95139e-015
lhumerus 9.61701 -6.68558 63.8093
lradius 67.4269
lwrist -6.54299
lhand -27.5727 15.8956
lfingers 7.12502
lthumb -0.973201 45.8732
rfemur 7.14915 6.09838 22.826
rtibia 43.9209
rfoot 33.0911 -18.4953
rtoes 7.64622
lfemur 11.5777 4.81099 -21.6056
ltibia 35.0274
lfoot 40.3123 0.0171656
ltoes -2.63764
213
root 0.045852 24.2298 -3.44829 0.380459 -2.47596 2.7298
lowerback -0.331743 1.9943 0.535893
upperback -4.33089 2.65645 -0.54219
thorax -4.22273 1.29281 -0.946371
lowerneck -13.1463 -2.48469 -8.15172
upperneck 6.48632 -2.61394 7.26383
head 4.28004 -1.07691 3.37726
rclavicle 5.20319e-014 1.27222e-014
rhumerus 18.5739 18.8262 -60.3703
rradius 45.1482
rwrist 16.9497
rhand -20.6758 -0.732784
rfingers 7.12502
rthumb 5.68733 -30.6365
lclavicle 5.20319e-014 1.27222e-014
lhumerus 6.84307 -4.94019 64.3144
lradius 67.1749
lwrist -5.6411
lhand -28.1582 15.9954
lfingers 7.12502
lthumb -1.53875 45.9696
rfemur 6.20662 6.24188 21.8495
rtibia 46.0356
rfoot 34.2651 -17.4112
rtoes 9.79858
lfemur 11.6323 4.33308 -23.2003
ltibia 35.0906
lfoot 41.2553 0.163881
ltoes -1.43347
214
root 0.0448235 24.4942 -3.24156 0.0489113 -2.75864 3.26333
lowerback -0.137746 2.03595 0.143064
upperback -4.296 2.6952 -0.779486
thorax -4.30228 1.32112 -0.979873
lowerneck -12.9331 -2.38438 -7.93673
upperneck 6.71987 -2.54794 7.31275
head 4.30997 -1.04033 3.36445
rclavicle -2.41523e-014 -1.78906e-015
rhumerus 17.0819 18.0354 -61.5423
rradius 44.915
rwrist 15.9522
rhand -20.2936 -1.09486
rfingers 7.12502
rthumb 6.05638 -30.9883
lclavicle -2.41523e-014 -1.78906e-015
lhumerus 3.94267 -3.29263 64.608
lradius 66.6433
lwrist -4.62577
lhand -28.3191 15.956
lfingers 7.12502
lthumb -1.69407 45.9291
rfemur 5.79038 6.39014 21.3887
rtibia 47.3051
rfoot 34.5385 -15.9732
rtoes 9.42486
lfemur 11.4561 3.68741 -24.2206
ltibia 34.5222
lfoot 41.1627 -1.20245
ltoes -5.28621
215
root 0.0469186 24.7214 -3.02733 -0.364545 -2.98834 3.09863
lowerback 0.0282283 1.97103 0.308381
upperback -4.31101 2.61714 -0.641832
thorax -4.41236 1.27797 -0.93462
lowerneck -12.5766 -2.15652 -7.51408
upperneck 7.04671 -2.31396 6.92093
head 4.3235 -0.943545 3.19283
rclavicle -3.47873e-015 1.47101e-014
rhumerus 15.6709 18.0162 -62.3171
rradius 44.798
rwrist 14.7174
rhand -20.0455 -1.87643
rfingers 7.12502
rthumb 6.29585 -31.7629
lclavicle -3.47873e-015 1.47101e-014
lhumerus 0.913381 -1.1257 65.069
lradius 65.7256
lwrist -3.91741
lhand -27.7891 15.9822
lfingers 7.12502
lthumb -1.18224 45.9587
rfemur 5.71437 6.66968 21.7693
rtibia 47.8392
rfoot 34.3338 -15.0061
rtoes 8.21956
lfemur 11.8989 3.09109 -24.4099
ltibia 33.4373
lfoot 40.781 -1.65531
ltoes -3.30172
216
root 0.0484533 24.9284 -2.80559 -0.711016 -3.16951 2.80559
lowerback -0.0816447 1.87655 0.510773
upperback -4.27515 2.50332 -0.415721
thorax -4.31589 1.21898 -0.805396
lowerneck -12.3638 -1.93083 -7.01883
upperneck 7.49358 -2.06761 6.35347
head 4.39565 -0.845922 2.9552
rclavicle -1.9133e-014 5.96354e-015
rhumerus 14.3971 18.0505 -63.0113
rradius 44.5112
rwrist 13.9614
rhand -21.7846 -1.52302
rfingers 7.12502
rthumb 4.61673 -31.4527
lclavicle -1.9133e-014 5.96354e-015
lhumerus -1.85266 1.31694 65.515
lradius 64.3522
lwrist -3.89368
lhand -26.9529 16.5133
lfingers 7.12502
lthumb -0.374625 46.4927
rfemur 5.88211 6.83331 22.2773
rtibia 47.8115
rfoot 34.0183 -14.8294
rtoes 9.39622
lfemur 12.544 2.55681 -24.4107
ltibia 31.9667
lfoot 39.0345 -1.68504
ltoes -4.06063
217
root 0.0478958 25.1293 -2.57736 -0.810423 -3.35381 2.96723
lowerback -0.65563 1.8416 0.289659
upperback -4.22699 2.44918 -0.424538
thorax -3.95008 1.20207 -0.666963
lowerneck -12.1578 -1.80856 -6.49341
upperneck 7.83754 -1.97165 5.92586
head 4.4511 -0.8122 2.74479
rclavicle -2.61402e-014 5.56597e-015
rhumerus 12.9614 16.9091 -64.3771
rradius 43.8507
rwrist 14.8166
rhand -24.68 0.22532
rfingers 7.12502
rthumb 1.82066 -29.7467
lclavicle -2.61402e-014 5.56597e-015
lhumerus -4.28526 3.51979 65.6571
lradius 62.6865
lwrist -4.1919
lhand -26.3803 17.5457
lfingers 7.12502
lthumb 0.178481 47.5253
rfemur 5.85941 7.02687 22.2482
rtibia 47.4775
rfoot 32.368 -15.0333
rtoes 7.27626
lfemur 12.9061 2.09213 -24.8915
ltibia 30.3112
lfoot 37.4263 -0.879928
ltoes -3.94618
218
root 0.0487825 25.3296 -2.34961 -0.490404 -3.54559 3.1696
lowerback -1.57113 1.84591 0.0832206
upperback -4.32415 2.44784 -0.526101
thorax -3.53813 1.2084 -0.624851
lowerneck -11.819 -1.74048 -6.1296
upperneck 8.0295 -1.96184 5.878
head 4.4498 -0.804195 2.67286
rclavicle -3.67255e-014 5.96354e-015
rhumerus 11.3725 15.5902 -65.7296
rradius 43.2627
rwrist 15.852
rhand -20.7961 -1.72268
rfingers 7.12502
rthumb 5.57118 -31.6294
lclavicle -3.67255e-014 5.96354e-015
lhumerus -6.59144 5.58191 65.5982
lradius 60.837
lwrist -4.71572
lhand -26.2601 18.6112
lfingers 7.12502
lthumb 0.294522 48.5907
rfemur 5.34676 7.28136 22.103
rtibia 46.9228
rfoot 31.4104 -15.455
rtoes 7.59063
lfemur 12.6598 1.53264 -25.4493
ltibia 28.6658
lfoot 35.7243 0.0925705
ltoes -4.41598
